<svg width="512" height="512" viewBox="0 0 512 512" fill="none" xmlns="http://www.w3.org/2000/svg">
<path d="M102 227C102 221.477 106.477 217 112 217C117.523 217 122 221.477 122 227V285C122 290.523 117.523 295 112 295C106.477 295 102 290.523 102 285V227Z" style="fill:currentColor;"/>
<path d="M150 168C150 162.477 154.477 158 160 158C165.523 158 170 162.477 170 168V344C170 349.523 165.523 354 160 354C154.477 354 150 349.523 150 344V168Z" style="fill:currentColor;"/>
<path d="M198 202C198 196.477 202.477 192 208 192C213.523 192 218 196.477 218 202V310C218 315.523 213.523 320 208 320C202.477 320 198 315.523 198 310V202Z" style="fill:currentColor;"/>
<path d="M246 122C246 116.477 250.477 112 256 112C261.523 112 266 116.477 266 122V390C266 395.523 261.523 400 256 400C250.477 400 246 395.523 246 390V122Z" style="fill:currentColor;"/>
<path d="M294 202C294 196.477 298.477 192 304 192C309.523 192 314 196.477 314 202V310C314 315.523 309.523 320 304 320C298.477 320 294 315.523 294 310V202Z" style="fill:currentColor;"/>
<path d="M342 168C342 162.477 346.477 158 352 158C357.523 158 362 162.477 362 168V344C362 349.523 357.523 354 352 354C346.477 354 342 349.523 342 344V168Z" style="fill:currentColor;"/>
<path d="M390 227C390 221.477 394.477 217 400 217C405.523 217 410 221.477 410 227V285C410 290.523 405.523 295 400 295C394.477 295 390 290.523 390 285V227Z" style="fill:currentColor;"/>
</svg>
