<svg width="512" height="512" viewBox="0 0 512 512" fill="none" xmlns="http://www.w3.org/2000/svg">
<path d="M272 128L144 192H80V320H144L272 384V128Z" style="fill:currentColor;"/>
<path d="M314.426 298.426C324.976 287.877 331.217 273.775 331.931 258.872C332.645 243.97 327.782 229.336 318.29 217.826L306.717 227.369C313.836 236.002 317.484 246.978 316.948 258.154C316.413 269.331 311.732 279.908 303.82 287.82L314.426 298.426Z" style="fill:currentColor;"/>
<path d="M344.125 328.125C362.059 310.19 372.669 286.217 373.883 260.883C375.097 235.549 366.829 210.671 350.692 191.104L337.297 202.151C350.687 218.387 357.548 239.03 356.54 260.052C355.533 281.074 346.729 300.966 331.848 315.848L344.125 328.125Z" style="fill:currentColor;"/>
<path d="M370.995 354.995C395.611 330.379 410.173 297.475 411.839 262.702C413.506 227.93 402.158 193.784 380.009 166.927L367.485 177.255C387.066 200.998 397.098 231.185 395.625 261.925C394.151 292.666 381.278 321.755 359.516 343.516L370.995 354.995Z" style="fill:currentColor;"/>
</svg>
