<svg width="512" height="512" viewBox="0 0 512 512" fill="none" xmlns="http://www.w3.org/2000/svg">
<g clip-path="url(#clip0_53_3)">
<path d="M473.869 270.751C470.577 261.343 472.458 216.656 473.869 191.948C475.28 167.239 471.674 157.064 468.225 145.627C463.365 124.616 435.303 83.2523 427.778 70.8339C417.443 56.1805 354.347 47.7849 325.248 47.7847C296.148 47.7845 248.84 46.3178 225.539 42.6103C184.151 36.0248 80.6805 84.005 62.7411 125.117C43.2391 169.811 48.9065 164.336 40.332 190.88C31.8598 217.108 36.4055 297.302 48.8323 315.616C63.9037 337.828 60.2358 374.914 127.634 432.202C162.178 461.564 291.984 469.233 306.435 467.846C318 466.736 360.455 464.99 389.005 452.333C415.411 437.59 461.102 393.057 473.869 339.429C476.221 329.55 477.161 280.159 473.869 270.751Z" fill="#00D2FF"/>
<path d="M354.819 66.6409C344.67 52.4905 350.696 68.9021 279 74.9999C207.304 81.0977 195.376 65.4479 174 78.5C152.624 91.5521 140.354 109.423 100.501 123.206C60.6491 136.99 30.8785 215.455 51.5665 251.807C72.2545 288.159 58.9337 286.722 64.5 310C69.9999 333 109.185 389.667 126.5 397.5C147.5 407 161.382 435.793 236.5 447.5C275 453.5 387.504 417.997 397.5 410.5C405.5 404.5 422.185 367.072 437.5 345C454.5 320.5 447 238 462 221.5C477 205 427.404 153.539 411 99.4999C409.027 92.9999 402.426 86.5557 389.949 85.8846C377.472 85.2134 364.968 80.7912 354.819 66.6409Z" fill="#52DDFB"/>
<path d="M397.5 173C396.5 159.5 405 147.5 355 122.5C305 97.4999 318.455 99.5 299 99.4999C279.545 99.4998 238 114.5 206 107.5C174 100.5 122.5 140.5 121.5 173C120.5 205.5 105.211 230.797 99.5001 248.5C94.5 264 102.5 299.5 115.5 306.5C128.5 313.5 128 325 152 379C176 433 236.292 410.5 246 410.5C256 410.5 261 398.5 324.5 398.5C369.5 398.5 394.27 382.5 399 365C404.611 344.239 413 313 424 270.5C435 228 421 205.5 413 200C405 194.5 398.5 186.5 397.5 173Z" fill="#81E7FE"/>
<circle cx="255.5" cy="255.5" r="139.5" fill="url(#paint0_radial_53_3)"/>
</g>
<defs>
<radialGradient id="paint0_radial_53_3" cx="0" cy="0" r="1" gradientUnits="userSpaceOnUse" gradientTransform="translate(255.5 255.5) rotate(90) scale(139.5)">
<stop offset="0.785" stop-color="white"/>
<stop offset="1" stop-color="#81E7FE"/>
</radialGradient>
<clipPath id="clip0_53_3">
<rect width="512" height="512" fill="white"/>
</clipPath>
</defs>
</svg>
